<svg xmlns="http://www.w3.org/2000/svg" width="192.611" height="32.097" viewBox="0 0 192.611 32.097">
  <g id="Grupo_1" data-name="Grupo 1" transform="translate(-437.218 -141.85)">
    <path id="Trazado_1" data-name="Trazado 1" d="M445.3,165.456v2.639l-8.08-3.111v-2.525l8.08-3.112v2.607l-4.725,1.792Z" transform="translate(0 -7.202)" fill="#161616"/>
    <path id="Trazado_2" data-name="Trazado 2" d="M750.849,165.456l4.731-1.71-4.731-1.792v-2.607l8.08,3.112v2.525l-8.08,3.111Z" transform="translate(-129.1 -7.202)" fill="#161616"/>
    <path id="Trazado_3" data-name="Trazado 3" d="M574.456,165.818V144.186h-1.442V141.85h3.779v23.968Z" transform="translate(-55.898)" fill="#161616"/>
    <path id="Trazado_4" data-name="Trazado 4" d="M459.41,167.047V151.8h-3.533V149.47h3.533v-4.395h2.326v4.395h4.739V151.8h-4.739v11.127l-.015,2.12h2.411v2.09Z" transform="translate(-7.681 -1.327)" fill="#161616"/>
    <path id="Trazado_5" data-name="Trazado 5" d="M479.2,147.195a1.19,1.19,0,0,1-.84-.345,1.2,1.2,0,0,1,0-1.724,1.194,1.194,0,0,1,.84-.344,1.207,1.207,0,1,1,0,2.413Zm-1.12,19.732V149.952H480.4v16.975Z" transform="translate(-16.783 -1.207)" fill="#161616"/>
    <path id="Trazado_6" data-name="Trazado 6" d="M602.336,165.348a9.079,9.079,0,0,1-11.632,4.287,9.144,9.144,0,0,1-4.8-4.8,9.082,9.082,0,0,1,0-7.044,9.077,9.077,0,0,1,4.8-4.825,8.767,8.767,0,0,1,3.533-.711,8.15,8.15,0,0,1,4.222,1.12,9.913,9.913,0,0,1,3.274,3.275l.517,1.034q-3.318,1.982-6.032,3.662-1.163.733-2.326,1.422t-2.132,1.293q-.97.6-1.7,1.034t-.991.6a8.126,8.126,0,0,0,2.305,1.68,6.393,6.393,0,0,0,2.865.647,6.773,6.773,0,0,0,3.554-.97,6.353,6.353,0,0,0,2.478-2.735Zm-3.274-8.444a7.315,7.315,0,0,0-2.2-1.787,5.633,5.633,0,0,0-2.628-.625,6.412,6.412,0,0,0-2.606.538,6.713,6.713,0,0,0-2.133,1.465,7.12,7.12,0,0,0-1.443,2.175,6.565,6.565,0,0,0-.538,2.628,8.268,8.268,0,0,0,.087,1.228,3.64,3.64,0,0,0,.344,1.1c.23-.114.625-.345,1.185-.69s1.206-.733,1.939-1.163,1.5-.9,2.305-1.4,1.579-.983,2.326-1.443,1.422-.868,2.025-1.227Z" transform="translate(-60.91 -4.281)" fill="#161616"/>
    <path id="Trazado_7" data-name="Trazado 7" d="M635.262,164.652A7.307,7.307,0,0,1,632.5,167.7a7.552,7.552,0,0,1-4.038,1.126,7.468,7.468,0,0,1-2.948-.593,7.636,7.636,0,0,1-4.08-4.08,7.473,7.473,0,0,1-.593-2.948,7.587,7.587,0,0,1,.593-2.992,7.448,7.448,0,0,1,1.638-2.416,7.913,7.913,0,0,1,2.442-1.622,8.086,8.086,0,0,1,6.737.314l.331.165.718-1.255-.325-.2a7.623,7.623,0,0,0-2.18-.908,10,10,0,0,0-2.332-.269,8.912,8.912,0,0,0-3.558.721,9.546,9.546,0,0,0-2.919,1.955,9.014,9.014,0,0,0-2.7,6.5,8.923,8.923,0,0,0,.721,3.559,9.33,9.33,0,0,0,4.9,4.9,8.9,8.9,0,0,0,3.559.722,9.06,9.06,0,0,0,4.861-1.373,9.5,9.5,0,0,0,3.413-3.66l.2-.371-1.5-.668Z" transform="translate(-74.942 -4.188)" fill="#161616"/>
    <path id="Trazado_8" data-name="Trazado 8" d="M662.742,152.75a7.816,7.816,0,0,0-3.265-.725,6.679,6.679,0,0,0-3.657,1.053,7.632,7.632,0,0,0-1.81,1.6v-2.652h-1.559v18.447h1.559V159.051a5.243,5.243,0,0,1,.441-2.125,5.736,5.736,0,0,1,1.19-1.755A5.488,5.488,0,0,1,657.37,154a5.3,5.3,0,0,1,2.107-.421,5.725,5.725,0,0,1,2.582.562l.35.175.7-1.4Z" transform="translate(-88.596 -4.188)" fill="#161616"/>
    <path id="Trazado_9" data-name="Trazado 9" d="M686.155,165.646a7.6,7.6,0,0,1-2.808,3.054,7.476,7.476,0,0,1-3.994,1.126,7.275,7.275,0,0,1-3.683-.938,8.227,8.227,0,0,1-2.467-2.165l.287-.182q.6-.385,1.6-.984t2.268-1.382c.83-.514,1.687-1.03,2.582-1.549q3.056-1.852,7.02-4.22l.373-.224-.5-.66a9.622,9.622,0,0,0-3.235-3.32,8.1,8.1,0,0,0-4.252-1.177,8.917,8.917,0,0,0-3.559.721,9.558,9.558,0,0,0-2.92,1.955,9.105,9.105,0,0,0-1.98,2.9,9.01,9.01,0,0,0-.721,3.6,8.9,8.9,0,0,0,.721,3.559,9.319,9.319,0,0,0,4.9,4.9,9.175,9.175,0,0,0,8.4-.652,9.223,9.223,0,0,0,3.351-3.664l.18-.351-1.39-.7Zm-1.853-7.462q-1.061.627-2.528,1.533t-3.16,1.914q-1.705,1.014-3.127,1.876t-2.4,1.468c-.295.183-.5.309-.64.394a7.32,7.32,0,0,1-.721-3.164,7.563,7.563,0,0,1,.594-2.992,7.457,7.457,0,0,1,1.636-2.416,7.937,7.937,0,0,1,2.443-1.622,7.486,7.486,0,0,1,2.949-.593,6.786,6.786,0,0,1,3.382.876,7.681,7.681,0,0,1,2.428,2.222Q684.848,157.861,684.3,158.184Z" transform="translate(-95.891 -4.6)" fill="#161616"/>
    <path id="Trazado_10" data-name="Trazado 10" d="M719.709,152.025l-.089.268q-.259.78-.672,2.166t-.923,2.987q-.518,1.618-1.057,3.364t-1.031,3.223q-.5,1.492-.843,2.615l-.135.438-.049-.135q-.324-.884-.777-2.092t-.968-2.624q-.493-1.357-1.027-2.754l2.82-7.456h-1.7l-.1.251q-.347.908-.928,2.5-.431,1.184-.946,2.556-.515-1.372-.946-2.556-.583-1.6-.928-2.5l-.1-.252h-1.7l2.819,7.456q-.533,1.4-1.026,2.753-.517,1.42-.969,2.625t-.777,2.093l-.049.134-.135-.438q-.346-1.124-.843-2.615t-1.031-3.223q-.54-1.747-1.057-3.364t-.947-2.992q-.429-1.37-.642-2.142l-.08-.287h-1.7l6.276,19.077,3.83-9.457,3.83,9.457,6.276-19.077Z" transform="translate(-108.656 -4.188)" fill="#161616"/>
    <path id="Trazado_11" data-name="Trazado 11" d="M739.2,152.025l-6.292,19h2.048l6.22-19Z" transform="translate(-121.715 -4.188)" fill="#161616"/>
    <path id="Trazado_12" data-name="Trazado 12" d="M512.916,170.063V158.6a4.353,4.353,0,0,0-.371-1.793,4.8,4.8,0,0,0-.984-1.443,4.528,4.528,0,0,0-3.193-1.312,4.575,4.575,0,0,0-1.793.349,4.744,4.744,0,0,0-1.466.963,4.578,4.578,0,0,0-1.006,1.443,4.335,4.335,0,0,0-.372,1.793v11.459h-2.275V158.6a4.345,4.345,0,0,0-.372-1.793,4.789,4.789,0,0,0-.984-1.443,4.528,4.528,0,0,0-3.193-1.312,4.481,4.481,0,0,0-4.549,4.549v11.459H490V152.131h2.362v1.312a5.644,5.644,0,0,1,2.055-1.312,7.13,7.13,0,0,1,2.494-.438,6.616,6.616,0,0,1,3.28.831,6.809,6.809,0,0,1,2.405,2.231,6.75,6.75,0,0,1,2.428-2.231,6.822,6.822,0,0,1,3.346-.831,6.518,6.518,0,0,1,2.646.547,6.844,6.844,0,0,1,3.63,3.652,6.783,6.783,0,0,1,.547,2.712v11.459Z" transform="translate(-21.726 -4.052)" fill="#161616"/>
    <path id="Trazado_13" data-name="Trazado 13" d="M538.126,178V151.862h2.36v2.885a9.135,9.135,0,0,1,10.379-2.338,9.149,9.149,0,0,1,4.9,4.895,9.216,9.216,0,0,1,0,7.146,9.212,9.212,0,0,1-4.9,4.873,8.959,8.959,0,0,1-3.561.721,8.737,8.737,0,0,1-3.8-.831,9.527,9.527,0,0,1-3.015-2.229V178Zm16.083-17.131a6.663,6.663,0,0,0-.547-2.666,7.218,7.218,0,0,0-1.464-2.207,6.83,6.83,0,0,0-4.895-2.032,6.517,6.517,0,0,0-2.644.546,6.828,6.828,0,0,0-2.163,1.486,7.2,7.2,0,0,0-1.464,2.207,6.654,6.654,0,0,0-.547,2.666,6.5,6.5,0,0,0,.547,2.644,6.9,6.9,0,0,0,3.627,3.628,6.508,6.508,0,0,0,2.644.546,6.774,6.774,0,0,0,2.709-.546,6.843,6.843,0,0,0,3.649-3.628A6.506,6.506,0,0,0,554.209,160.865Z" transform="translate(-41.537 -4.049)" fill="#161616"/>
  </g>
</svg>
